<?xml version="1.0" standalone="no"?>
<!DOCTYPE svg PUBLIC "-//W3C//DTD SVG 20010904//EN"
 "http://www.w3.org/TR/2001/REC-SVG-20010904/DTD/svg10.dtd">
<svg version="1.0" xmlns="http://www.w3.org/2000/svg"
 width="150.000000pt" height="150.000000pt" viewBox="0 0 150.000000 150.000000"
 preserveAspectRatio="xMidYMid meet">
<metadata>
Created by potrace 1.10, written by Peter Selinger 2001-2011
</metadata>
<g transform="translate(0.000000,150.000000) scale(0.100000,-0.100000)"
fill="#08bf1d" stroke="none">
<path d="M452 1287 c-155 -90 -290 -174 -300 -188 -15 -21 -17 -59 -20 -319
-2 -162 -1 -314 3 -338 9 -58 41 -91 150 -149 76 -40 98 -48 145 -48 63 1 108
23 134 65 14 25 16 71 16 359 l0 331 -40 0 -40 0 0 -313 0 -314 -23 -21 c-13
-12 -35 -22 -49 -22 -26 0 -136 53 -191 92 l-27 19 0 308 0 307 233 134 c127
73 249 143 269 154 l38 21 52 -29 c153 -85 484 -279 489 -288 3 -5 7 -143 8
-308 l1 -298 -27 -19 c-75 -52 -503 -293 -519 -293 -11 0 -48 18 -84 39 l-65
39 -40 -20 c-22 -11 -41 -22 -43 -23 -1 -1 45 -31 103 -65 128 -76 131 -75
271 6 54 31 177 102 273 158 96 55 181 111 190 125 14 22 16 66 16 356 0 290
-2 334 -16 355 -24 36 -567 350 -604 350 -12 0 -148 -73 -303 -163z m444 67
c152 -88 335 -194 374 -216 80 -45 75 -21 78 -381 2 -246 -1 -328 -11 -347
-11 -23 -128 -100 -245 -162 -24 -13 -51 -28 -60 -33 -69 -42 -144 -85 -147
-85 -2 0 -27 -14 -55 -30 -28 -17 -63 -30 -77 -30 -25 0 -135 56 -141 72 -2 4
-10 8 -18 8 -19 0 -18 16 2 24 9 4 24 0 33 -8 9 -7 40 -26 70 -42 l54 -28 66
35 c132 69 476 272 489 287 9 12 12 92 12 323 0 278 -2 309 -17 327 -15 18
-68 50 -248 152 -16 9 -65 38 -108 64 -43 25 -81 46 -84 46 -4 0 -28 14 -54
31 -54 34 -67 33 -139 -11 -25 -15 -66 -39 -92 -54 -99 -54 -144 -80 -180
-103 -21 -12 -40 -23 -42 -23 -3 0 -25 -13 -49 -30 -25 -16 -49 -30 -53 -30
-5 0 -22 -10 -38 -23 l-29 -23 0 -312 c-1 -357 -10 -324 103 -392 74 -44 131
-64 158 -55 9 3 31 17 47 32 l30 26 0 306 c0 265 2 306 15 306 13 0 15 -41 12
-320 -2 -255 -6 -324 -17 -342 -19 -29 -78 -47 -127 -39 -47 8 -184 76 -222
111 l-26 24 0 328 c0 275 2 332 15 350 14 20 43 39 150 98 71 39 110 62 191
110 167 100 189 113 204 118 32 13 81 -3 176 -59z"/>
<path d="M770 997 c-76 -31 -103 -72 -98 -149 6 -89 43 -118 174 -138 149 -22
193 -33 213 -51 28 -26 26 -60 -4 -89 -22 -21 -37 -25 -118 -28 -125 -5 -165
9 -192 66 -18 39 -23 42 -57 42 -34 0 -38 -3 -38 -25 0 -68 58 -135 133 -156
23 -7 83 -12 133 -12 163 0 248 60 249 174 0 94 -50 128 -227 154 -171 26
-204 45 -176 103 18 36 76 55 153 49 78 -6 123 -29 141 -73 12 -29 19 -34 49
-34 43 0 46 6 33 58 -22 86 -105 132 -237 132 -55 -1 -91 -7 -131 -23z m206
-9 c71 -14 112 -40 130 -84 18 -42 18 -44 -3 -44 -10 0 -28 16 -41 36 -13 19
-39 42 -57 50 -41 17 -177 19 -208 3 -85 -44 -90 -118 -10 -163 6 -3 67 -15
135 -25 183 -29 218 -48 218 -121 0 -101 -60 -148 -206 -157 -135 -9 -243 35
-247 102 -2 38 14 45 30 14 27 -55 57 -71 144 -79 143 -13 205 6 234 69 16 37
16 40 0 65 -23 35 -65 56 -134 67 -31 4 -87 13 -125 19 -39 6 -84 18 -100 28
-28 16 -31 23 -34 77 -4 70 9 98 53 119 72 35 134 41 221 24z"/>
</g>
</svg>
